<svg width="31" height="31" viewBox="0 0 31 31" fill="none" xmlns="http://www.w3.org/2000/svg">
<rect opacity="0.1" x="0.0114746" y="0.840332" width="30" height="30" rx="3" fill="#6653C6"/>
<path d="M8.72219 13.523H11.6257V22.9504H8.72219V13.523ZM10.1791 8.84036C10.5123 8.84244 10.8374 8.94437 11.1132 9.13323C11.389 9.3221 11.603 9.58939 11.7281 9.90122C11.8533 10.2131 11.8839 10.5554 11.8162 10.8848C11.7484 11.2143 11.5853 11.516 11.3475 11.7517C11.1098 11.9874 10.808 12.1465 10.4806 12.2089C10.1531 12.2713 9.81472 12.2341 9.50824 12.102C9.20176 11.9699 8.94102 11.7489 8.75907 11.4671C8.57712 11.1852 8.48215 10.8551 8.48621 10.5187C8.49162 10.0698 8.67269 9.64144 8.98988 9.32699C9.30707 9.01254 9.73459 8.83759 10.1791 8.84036Z" fill="#6653C6"/>
<path d="M13.4529 13.5236H16.2333V14.8083C16.5144 14.3289 16.9179 13.9346 17.4017 13.6667C17.8854 13.3988 18.4316 13.2671 18.983 13.2854C21.9276 13.2854 22.4611 15.2434 22.4611 17.7815V22.9614H19.5986V18.3617C19.5986 17.2739 19.5986 15.865 18.0904 15.865C16.5822 15.865 16.3462 17.0563 16.3462 18.2892V22.9511H13.4529V13.5236Z" fill="#6653C6"/>
</svg>
