<svg width="118" height="28" viewBox="0 0 118 28" fill="none" xmlns="http://www.w3.org/2000/svg">
    <path d="M0 3.11111H7.55556C11.7284 3.11111 15.1111 6.49383 15.1111 10.6667C15.1111 14.8395 11.7284 18.2222 7.55556 18.2222H0V3.11111ZM7.55556 15.1111C10.0123 15.1111 12 13.1235 12 10.6667C12 8.20988 10.0123 6.22222 7.55556 6.22222H3.11111V15.1111H7.55556Z" fill="#333333"/>
    <path d="M35.5556 18.2222H32.4444V11.8889H25.3333V18.2222H22.2222V3.11111H25.3333V8.77778H32.4444V3.11111H35.5556V18.2222Z" fill="#333333"/>
    <path d="M118 3.11111V18.2222H114.889V12.4444H107.778V18.2222H104.667V3.11111H107.778V9.33333H114.889V3.11111H118Z" fill="#333333"/>
    <path d="M71.1111 3.11111H74.2222V18.2222H71.1111V3.11111Z" fill="#333333"/>
    <path d="M82.2222 18.2222V3.11111H85.3333V15.1111H92.4444V18.2222H82.2222Z" fill="#333333"/>
    <path d="M48.8889 18.2222L42.2222 3.11111H45.3333L50.4444 15.1111L55.5556 3.11111H58.6667L52 18.2222H48.8889Z" fill="#333333"/>
</svg>
