<svg width="16" height="12" viewBox="0 0 16 12" fill="none" xmlns="http://www.w3.org/2000/svg">
<path d="M13.1365 0.340332H1.88647C1.38936 0.340828 0.912752 0.525362 0.561237 0.853443C0.209721 1.18152 0.0120064 1.62636 0.0114746 2.09033V9.59033C0.0120064 10.0543 0.209721 10.4991 0.561237 10.8272C0.912752 11.1553 1.38936 11.3398 1.88647 11.3403H13.1365C13.6336 11.3398 14.1102 11.1553 14.4617 10.8272C14.8132 10.4991 15.0109 10.0543 15.0115 9.59033V2.09033C15.0109 1.62636 14.8132 1.18152 14.4617 0.853443C14.1102 0.525362 13.6336 0.340828 13.1365 0.340332ZM12.6617 3.23502L7.84027 6.73502C7.74625 6.80324 7.63056 6.84027 7.51147 6.84027C7.39239 6.84027 7.2767 6.80324 7.18268 6.73502L2.36125 3.23502C2.3046 3.19509 2.25702 3.14506 2.22127 3.08782C2.18553 3.03058 2.16232 2.96728 2.15301 2.9016C2.1437 2.83592 2.14846 2.76917 2.16703 2.70522C2.1856 2.64128 2.2176 2.58141 2.26117 2.52911C2.30474 2.4768 2.35902 2.4331 2.42084 2.40055C2.48267 2.36799 2.55081 2.34723 2.6213 2.33946C2.6918 2.33169 2.76324 2.33708 2.83149 2.35531C2.89974 2.37354 2.96342 2.40425 3.01884 2.44564L7.51147 5.70689L12.0041 2.44564C12.1164 2.36646 12.2577 2.33174 12.3972 2.34897C12.5368 2.36621 12.6635 2.43402 12.7499 2.53775C12.8363 2.64147 12.8755 2.77277 12.859 2.90326C12.8425 3.03374 12.7716 3.15292 12.6617 3.23502Z" fill="#6653C6"/>
</svg>
