<svg width="15" height="18" viewBox="0 0 15 18" fill="none" xmlns="http://www.w3.org/2000/svg">
<path fill-rule="evenodd" clip-rule="evenodd" d="M2.06198 2.89069C3.3748 1.57787 5.15537 0.840332 7.01198 0.840332C8.86859 0.840332 10.6492 1.57787 11.962 2.89069C13.2748 4.20351 14.0123 5.98408 14.0123 7.84069C14.0123 9.6973 13.2748 11.4779 11.962 12.7907L7.01198 17.7407L2.06198 12.7907C1.41189 12.1407 0.896214 11.369 0.544386 10.5196C0.192559 9.67031 0.0114746 8.76 0.0114746 7.84069C0.0114746 6.92138 0.192559 6.01107 0.544386 5.16174C0.896214 4.31241 1.41189 3.54071 2.06198 2.89069ZM7.01198 9.84069C7.54241 9.84069 8.05112 9.62997 8.42619 9.2549C8.80127 8.87983 9.01198 8.37112 9.01198 7.84069C9.01198 7.31026 8.80127 6.80155 8.42619 6.42648C8.05112 6.0514 7.54241 5.84069 7.01198 5.84069C6.48155 5.84069 5.97284 6.0514 5.59777 6.42648C5.22269 6.80155 5.01198 7.31026 5.01198 7.84069C5.01198 8.37112 5.22269 8.87983 5.59777 9.2549C5.97284 9.62997 6.48155 9.84069 7.01198 9.84069Z" fill="#6653C6"/>
</svg>
