<svg width="18" height="18" viewBox="0 0 18 18" fill="none" xmlns="http://www.w3.org/2000/svg">
<path d="M16.6992 13.6569L12.82 10.1299C12.6367 9.96322 12.3957 9.87433 12.148 9.88199C11.9004 9.88965 11.6654 9.99325 11.4926 10.1709L9.20906 12.5194C8.6594 12.4144 7.55434 12.0699 6.41685 10.9353C5.27935 9.79684 4.93486 8.68894 4.83275 8.14309L7.17931 5.85857C7.3572 5.68597 7.46095 5.45093 7.46861 5.20319C7.47627 4.95545 7.38724 4.71444 7.22035 4.53119L3.6943 0.653038C3.52734 0.469205 3.29529 0.357696 3.04744 0.342195C2.79959 0.326693 2.55546 0.408419 2.3669 0.570017L0.296118 2.34591C0.131134 2.51149 0.032661 2.73187 0.0193779 2.96523C0.00506375 3.2038 -0.267859 8.85498 4.11418 13.2389C7.93701 17.0607 12.7256 17.3403 14.0444 17.3403C14.2371 17.3403 14.3555 17.3346 14.387 17.3327C14.6203 17.3196 14.8406 17.2207 15.0053 17.055L16.7803 14.9833C16.9425 14.7953 17.0249 14.5514 17.0097 14.3036C16.9945 14.0557 16.8831 13.8236 16.6992 13.6569Z" fill="#6653C6"/>
</svg>
